# Blender 4.1.1
# www.blender.org
o Cube
v -5.000000 -0.500000 5.000000
v -5.000000 0.500000 5.000000
v -5.000000 -0.500000 -5.000000
v -5.000000 0.500000 -5.000000
v 5.000000 -0.500000 5.000000
v 5.000000 0.500000 5.000000
v 5.000000 -0.500000 -5.000000
v 5.000000 0.500000 -5.000000
vn -1.0000 -0.0000 -0.0000
vn -0.0000 -0.0000 -1.0000
vn 1.0000 -0.0000 -0.0000
vn -0.0000 -0.0000 1.0000
vn -0.0000 -1.0000 -0.0000
vn -0.0000 1.0000 -0.0000
vt 0.375000 0.000000
vt 0.625000 0.000000
vt 0.625000 0.250000
vt 0.375000 0.250000
vt 0.625000 0.500000
vt 0.375000 0.500000
vt 0.625000 0.750000
vt 0.375000 0.750000
vt 0.625000 1.000000
vt 0.375000 1.000000
vt 0.125000 0.500000
vt 0.125000 0.750000
vt 0.875000 0.500000
vt 0.875000 0.750000
s 0
f 1/1/1 2/2/1 4/3/1 3/4/1
f 3/4/2 4/3/2 8/5/2 7/6/2
f 7/6/3 8/5/3 6/7/3 5/8/3
f 5/8/4 6/7/4 2/9/4 1/10/4
f 3/11/5 7/6/5 5/8/5 1/12/5
f 8/5/6 4/13/6 2/14/6 6/7/6
o Cube.002
v 7.000000 -0.500000 5.000000
v 7.000000 0.500000 5.000000
v 7.000000 -0.500000 -5.000000
v 7.000000 0.500000 -5.000000
v 17.000000 -0.500000 5.000000
v 17.000000 0.500000 5.000000
v 17.000000 -0.500000 -5.000000
v 17.000000 0.500000 -5.000000
vn -1.0000 -0.0000 -0.0000
vn -0.0000 -0.0000 -1.0000
vn 1.0000 -0.0000 -0.0000
vn -0.0000 -0.0000 1.0000
vn -0.0000 -1.0000 -0.0000
vn -0.0000 1.0000 -0.0000
vt 0.375000 0.000000
vt 0.625000 0.000000
vt 0.625000 0.250000
vt 0.375000 0.250000
vt 0.625000 0.500000
vt 0.375000 0.500000
vt 0.625000 0.750000
vt 0.375000 0.750000
vt 0.625000 1.000000
vt 0.375000 1.000000
vt 0.125000 0.500000
vt 0.125000 0.750000
vt 0.875000 0.500000
vt 0.875000 0.750000
s 0
f 9/15/7 10/16/7 12/17/7 11/18/7
f 11/18/8 12/17/8 16/19/8 15/20/8
f 15/20/9 16/19/9 14/21/9 13/22/9
f 13/22/10 14/21/10 10/23/10 9/24/10
f 11/25/11 15/20/11 13/22/11 9/26/11
f 16/19/12 12/27/12 10/28/12 14/21/12
o Cube.009
v 7.617452 7.458306 5.000000
v 8.191028 8.277458 5.000000
v 7.617452 7.458306 -5.000000
v 8.191028 8.277458 -5.000000
v 15.808972 1.722542 5.000000
v 16.382549 2.541694 5.000000
v 15.808972 1.722542 -5.000000
v 16.382549 2.541694 -5.000000
vn -0.8192 0.5736 -0.0000
vn -0.0000 -0.0000 -1.0000
vn 0.8192 -0.5736 -0.0000
vn -0.0000 -0.0000 1.0000
vn -0.5736 -0.8192 -0.0000
vn 0.5736 0.8192 -0.0000
vt 0.375000 0.000000
vt 0.625000 0.000000
vt 0.625000 0.250000
vt 0.375000 0.250000
vt 0.625000 0.500000
vt 0.375000 0.500000
vt 0.625000 0.750000
vt 0.375000 0.750000
vt 0.625000 1.000000
vt 0.375000 1.000000
vt 0.125000 0.500000
vt 0.125000 0.750000
vt 0.875000 0.500000
vt 0.875000 0.750000
s 0
f 17/29/13 18/30/13 20/31/13 19/32/13
f 19/32/14 20/31/14 24/33/14 23/34/14
f 23/34/15 24/33/15 22/35/15 21/36/15
f 21/36/16 22/35/16 18/37/16 17/38/16
f 19/39/17 23/34/17 21/36/17 17/40/17
f 24/33/18 20/41/18 18/42/18 22/35/18
o Walls
v 61.000000 0.000000 2.000000
v 61.000000 6.000000 2.000000
v 60.000000 0.000000 2.000000
v 60.000000 6.000000 2.000000
v 61.000000 0.000000 -8.000000
v 61.000000 6.000000 -8.000000
v 60.000000 0.000000 -8.000000
v 60.000000 6.000000 -8.000000
v 54.999996 0.000000 -6.000000
v 54.999996 6.000000 -6.000000
v 53.999996 0.000000 -6.000000
v 53.999996 6.000000 -6.000000
v 54.999996 0.000000 -16.000002
v 54.999996 6.000000 -16.000002
v 53.999996 0.000000 -16.000002
v 53.999996 6.000000 -16.000002
v 49.999996 0.000000 5.000001
v 49.999996 6.000000 5.000001
v 49.999996 0.000000 4.000001
v 49.999996 6.000000 4.000001
v 59.999996 0.000000 5.000001
v 59.999996 6.000000 5.000001
v 59.999996 0.000000 4.000000
v 59.999996 6.000000 4.000000
vn -0.0000 -0.0000 1.0000
vn -1.0000 -0.0000 -0.0000
vn -0.0000 -0.0000 -1.0000
vn 1.0000 -0.0000 -0.0000
vn -0.0000 -1.0000 -0.0000
vn -0.0000 1.0000 -0.0000
vt 0.375000 0.000000
vt 0.625000 0.000000
vt 0.625000 0.250000
vt 0.375000 0.250000
vt 0.625000 0.500000
vt 0.375000 0.500000
vt 0.625000 0.750000
vt 0.375000 0.750000
vt 0.625000 1.000000
vt 0.375000 1.000000
vt 0.125000 0.500000
vt 0.125000 0.750000
vt 0.875000 0.500000
vt 0.875000 0.750000
s 0
f 25/43/19 26/44/19 28/45/19 27/46/19
f 27/46/20 28/45/20 32/47/20 31/48/20
f 31/48/21 32/47/21 30/49/21 29/50/21
f 29/50/22 30/49/22 26/51/22 25/52/22
f 27/53/23 31/48/23 29/50/23 25/54/23
f 32/47/24 28/55/24 26/56/24 30/49/24
f 33/43/19 34/44/19 36/45/19 35/46/19
f 35/46/20 36/45/20 40/47/20 39/48/20
f 39/48/21 40/47/21 38/49/21 37/50/21
f 37/50/22 38/49/22 34/51/22 33/52/22
f 35/53/23 39/48/23 37/50/23 33/54/23
f 40/47/24 36/55/24 34/56/24 38/49/24
f 41/43/20 42/44/20 44/45/20 43/46/20
f 43/46/21 44/45/21 48/47/21 47/48/21
f 47/48/22 48/47/22 46/49/22 45/50/22
f 45/50/19 46/49/19 42/51/19 41/52/19
f 43/53/23 47/48/23 45/50/23 41/54/23
f 48/47/24 44/55/24 42/56/24 46/49/24
o Cube.011
v 37.000000 -0.500000 5.000000
v 37.000000 0.500000 5.000000
v 37.000000 -0.500000 -5.000000
v 37.000000 0.500000 -5.000000
v 47.000000 -0.500000 5.000000
v 47.000000 0.500000 5.000000
v 47.000000 -0.500000 -5.000000
v 47.000000 0.500000 -5.000000
v 27.000000 -0.500000 5.000000
v 27.000000 0.500000 5.000000
v 27.000000 -0.500000 -5.000000
v 27.000000 0.500000 -5.000000
v 37.000000 -0.500000 5.000000
v 37.000000 0.500000 5.000000
v 37.000000 -0.500000 -5.000000
v 37.000000 0.500000 -5.000000
vn -1.0000 -0.0000 -0.0000
vn -0.0000 -0.0000 -1.0000
vn 1.0000 -0.0000 -0.0000
vn -0.0000 -0.0000 1.0000
vn -0.0000 -1.0000 -0.0000
vn -0.0000 1.0000 -0.0000
vt 0.375000 0.000000
vt 0.625000 0.000000
vt 0.625000 0.250000
vt 0.375000 0.250000
vt 0.625000 0.500000
vt 0.375000 0.500000
vt 0.625000 0.750000
vt 0.375000 0.750000
vt 0.625000 1.000000
vt 0.375000 1.000000
vt 0.125000 0.500000
vt 0.125000 0.750000
vt 0.875000 0.500000
vt 0.875000 0.750000
s 0
f 49/57/25 50/58/25 52/59/25 51/60/25
f 51/60/26 52/59/26 56/61/26 55/62/26
f 55/62/27 56/61/27 54/63/27 53/64/27
f 53/64/28 54/63/28 50/65/28 49/66/28
f 51/67/29 55/62/29 53/64/29 49/68/29
f 56/61/30 52/69/30 50/70/30 54/63/30
f 57/57/25 58/58/25 60/59/25 59/60/25
f 59/60/26 60/59/26 64/61/26 63/62/26
f 63/62/27 64/61/27 62/63/27 61/64/27
f 61/64/28 62/63/28 58/65/28 57/66/28
f 59/67/29 63/62/29 61/64/29 57/68/29
f 64/61/30 60/69/30 58/70/30 62/63/30
o Cube.004
v 135.000000 9.500000 -15.000000
v 135.000000 10.500000 -15.000000
v 135.000000 9.500000 -25.000000
v 135.000000 10.500000 -25.000000
v 145.000000 9.500000 -15.000000
v 145.000000 10.500000 -15.000000
v 145.000000 9.500000 -25.000000
v 145.000000 10.500000 -25.000000
v 145.000000 9.500000 -14.999999
v 145.000000 10.500000 -14.999999
v 145.000000 9.500000 -24.999998
v 145.000000 10.500000 -24.999998
v 155.000000 9.500000 -14.999999
v 155.000000 10.500000 -14.999999
v 155.000000 9.500000 -24.999998
v 155.000000 10.500000 -24.999998
vn -1.0000 -0.0000 -0.0000
vn -0.0000 -0.0000 -1.0000
vn 1.0000 -0.0000 -0.0000
vn -0.0000 -0.0000 1.0000
vn -0.0000 -1.0000 -0.0000
vn -0.0000 1.0000 -0.0000
vt 0.375000 0.000000
vt 0.625000 0.000000
vt 0.625000 0.250000
vt 0.375000 0.250000
vt 0.625000 0.500000
vt 0.375000 0.500000
vt 0.625000 0.750000
vt 0.375000 0.750000
vt 0.625000 1.000000
vt 0.375000 1.000000
vt 0.125000 0.500000
vt 0.125000 0.750000
vt 0.875000 0.500000
vt 0.875000 0.750000
s 0
f 65/71/31 66/72/31 68/73/31 67/74/31
f 67/74/32 68/73/32 72/75/32 71/76/32
f 71/76/33 72/75/33 70/77/33 69/78/33
f 69/78/34 70/77/34 66/79/34 65/80/34
f 67/81/35 71/76/35 69/78/35 65/82/35
f 72/75/36 68/83/36 66/84/36 70/77/36
f 73/71/31 74/72/31 76/73/31 75/74/31
f 75/74/32 76/73/32 80/75/32 79/76/32
f 79/76/33 80/75/33 78/77/33 77/78/33
f 77/78/34 78/77/34 74/79/34 73/80/34
f 75/81/35 79/76/35 77/78/35 73/82/35
f 80/75/36 76/83/36 74/84/36 78/77/36
o Cube.005
v 27.000000 -0.500000 5.000000
v 28.000000 -0.500000 5.000000
v 27.000000 -0.500000 -5.000000
v 28.000000 -0.500000 -5.000000
v 27.000000 -4.500000 5.000000
v 28.000000 -4.500000 5.000000
v 27.000000 -4.500000 -5.000000
v 28.000000 -4.500000 -5.000000
v 17.000000 -4.500000 5.000000
v 17.000000 -3.500000 5.000000
v 17.000000 -4.500000 -5.000000
v 17.000000 -3.500000 -5.000000
v 27.000000 -4.500000 5.000000
v 27.000000 -3.500000 5.000000
v 27.000000 -4.500000 -5.000000
v 27.000000 -3.500000 -5.000000
v 16.000000 -0.500000 5.000000
v 17.000000 -0.500000 5.000000
v 16.000000 -0.500000 -5.000000
v 17.000000 -0.500000 -5.000000
v 16.000000 -4.500000 5.000000
v 17.000000 -4.500000 5.000000
v 16.000000 -4.500000 -5.000000
v 17.000000 -4.500000 -5.000000
vn -0.0000 1.0000 -0.0000
vn -0.0000 -0.0000 -1.0000
vn -0.0000 -1.0000 -0.0000
vn -0.0000 -0.0000 1.0000
vn -1.0000 -0.0000 -0.0000
vn 1.0000 -0.0000 -0.0000
vt 0.375000 0.000000
vt 0.625000 0.000000
vt 0.625000 0.250000
vt 0.375000 0.250000
vt 0.625000 0.500000
vt 0.375000 0.500000
vt 0.625000 0.750000
vt 0.375000 0.750000
vt 0.625000 1.000000
vt 0.375000 1.000000
vt 0.125000 0.500000
vt 0.125000 0.750000
vt 0.875000 0.500000
vt 0.875000 0.750000
s 0
f 81/85/37 82/86/37 84/87/37 83/88/37
f 83/88/38 84/87/38 88/89/38 87/90/38
f 87/90/39 88/89/39 86/91/39 85/92/39
f 85/92/40 86/91/40 82/93/40 81/94/40
f 83/95/41 87/90/41 85/92/41 81/96/41
f 88/89/42 84/97/42 82/98/42 86/91/42
f 89/85/41 90/86/41 92/87/41 91/88/41
f 91/88/38 92/87/38 96/89/38 95/90/38
f 95/90/42 96/89/42 94/91/42 93/92/42
f 93/92/40 94/91/40 90/93/40 89/94/40
f 91/95/39 95/90/39 93/92/39 89/96/39
f 96/89/37 92/97/37 90/98/37 94/91/37
f 97/85/37 98/86/37 100/87/37 99/88/37
f 99/88/38 100/87/38 104/89/38 103/90/38
f 103/90/39 104/89/39 102/91/39 101/92/39
f 101/92/40 102/91/40 98/93/40 97/94/40
f 99/95/41 103/90/41 101/92/41 97/96/41
f 104/89/42 100/97/42 98/98/42 102/91/42
o Cube.010
v 81.000000 -1.500000 -15.000000
v 81.000000 0.500000 -15.000000
v 81.000000 -1.500000 -25.000000
v 81.000000 0.500000 -25.000000
v 83.000000 -1.500000 -15.000000
v 83.000000 0.500000 -15.000000
v 83.000000 -1.500000 -25.000000
v 83.000000 0.500000 -25.000000
v 79.000000 -1.500000 -21.000000
v 79.000000 0.500000 -21.000000
v 79.000000 -1.500000 -25.000000
v 79.000000 0.500000 -25.000000
v 81.000000 -1.500000 -21.000000
v 81.000000 0.500000 -21.000000
v 81.000000 -1.500000 -25.000000
v 81.000000 0.500000 -25.000000
v 77.000000 -1.500000 -15.000000
v 77.000000 0.500000 -15.000000
v 77.000000 -1.500000 -25.000000
v 77.000000 0.500000 -25.000000
v 79.000000 -1.500000 -15.000000
v 79.000000 0.500000 -15.000000
v 79.000000 -1.500000 -25.000000
v 79.000000 0.500000 -25.000000
v 79.000000 -1.500000 -19.000000
v 79.000000 -0.500000 -19.000000
v 79.000000 -1.500000 -21.000000
v 79.000000 -0.500000 -21.000000
v 81.000000 -1.500000 -19.000000
v 81.000000 -0.500000 -19.000000
v 81.000000 -1.500000 -21.000000
v 81.000000 -0.500000 -21.000000
v 79.000000 -1.500000 -15.000000
v 79.000000 0.500000 -15.000000
v 79.000000 -1.500000 -19.000000
v 79.000000 0.500000 -19.000000
v 81.000000 -1.500000 -15.000000
v 81.000000 0.500000 -15.000000
v 81.000000 -1.500000 -19.000000
v 81.000000 0.500000 -19.000000
vn -1.0000 -0.0000 -0.0000
vn -0.0000 -0.0000 -1.0000
vn 1.0000 -0.0000 -0.0000
vn -0.0000 -0.0000 1.0000
vn -0.0000 -1.0000 -0.0000
vn -0.0000 1.0000 -0.0000
vt 0.375000 0.000000
vt 0.625000 0.000000
vt 0.625000 0.250000
vt 0.375000 0.250000
vt 0.625000 0.500000
vt 0.375000 0.500000
vt 0.625000 0.750000
vt 0.375000 0.750000
vt 0.625000 1.000000
vt 0.375000 1.000000
vt 0.125000 0.500000
vt 0.125000 0.750000
vt 0.875000 0.500000
vt 0.875000 0.750000
s 0
f 105/99/43 106/100/43 108/101/43 107/102/43
f 107/102/44 108/101/44 112/103/44 111/104/44
f 111/104/45 112/103/45 110/105/45 109/106/45
f 109/106/46 110/105/46 106/107/46 105/108/46
f 107/109/47 111/104/47 109/106/47 105/110/47
f 112/103/48 108/111/48 106/112/48 110/105/48
f 113/99/43 114/100/43 116/101/43 115/102/43
f 115/102/44 116/101/44 120/103/44 119/104/44
f 119/104/45 120/103/45 118/105/45 117/106/45
f 117/106/46 118/105/46 114/107/46 113/108/46
f 115/109/47 119/104/47 117/106/47 113/110/47
f 120/103/48 116/111/48 114/112/48 118/105/48
f 121/99/43 122/100/43 124/101/43 123/102/43
f 123/102/44 124/101/44 128/103/44 127/104/44
f 127/104/45 128/103/45 126/105/45 125/106/45
f 125/106/46 126/105/46 122/107/46 121/108/46
f 123/109/47 127/104/47 125/106/47 121/110/47
f 128/103/48 124/111/48 122/112/48 126/105/48
f 129/99/43 130/100/43 132/101/43 131/102/43
f 131/102/44 132/101/44 136/103/44 135/104/44
f 135/104/45 136/103/45 134/105/45 133/106/45
f 133/106/46 134/105/46 130/107/46 129/108/46
f 131/109/47 135/104/47 133/106/47 129/110/47
f 136/103/48 132/111/48 130/112/48 134/105/48
f 137/99/43 138/100/43 140/101/43 139/102/43
f 139/102/44 140/101/44 144/103/44 143/104/44
f 143/104/45 144/103/45 142/105/45 141/106/45
f 141/106/46 142/105/46 138/107/46 137/108/46
f 139/109/47 143/104/47 141/106/47 137/110/47
f 144/103/48 140/111/48 138/112/48 142/105/48
o JumpPad
v 127.000000 -0.500000 -17.000000
v 127.000000 0.500000 -17.000000
v 127.000000 -0.500000 -23.000000
v 127.000000 0.500000 -23.000000
v 133.000000 -0.500000 -17.000000
v 133.000000 0.500000 -17.000000
v 133.000000 -0.500000 -23.000000
v 133.000000 0.500000 -23.000000
vn -1.0000 -0.0000 -0.0000
vn -0.0000 -0.0000 -1.0000
vn 1.0000 -0.0000 -0.0000
vn -0.0000 -0.0000 1.0000
vn -0.0000 -1.0000 -0.0000
vn -0.0000 1.0000 -0.0000
vt 0.375000 0.000000
vt 0.625000 0.000000
vt 0.625000 0.250000
vt 0.375000 0.250000
vt 0.625000 0.500000
vt 0.375000 0.500000
vt 0.625000 0.750000
vt 0.375000 0.750000
vt 0.625000 1.000000
vt 0.375000 1.000000
vt 0.125000 0.500000
vt 0.125000 0.750000
vt 0.875000 0.500000
vt 0.875000 0.750000
s 0
f 145/113/49 146/114/49 148/115/49 147/116/49
f 147/116/50 148/115/50 152/117/50 151/118/50
f 151/118/51 152/117/51 150/119/51 149/120/51
f 149/120/52 150/119/52 146/121/52 145/122/52
f 147/123/53 151/118/53 149/120/53 145/124/53
f 152/117/54 148/125/54 146/126/54 150/119/54
o Cube.006
v 57.000000 -0.500000 -15.000000
v 57.000000 0.500000 -15.000000
v 57.000000 -0.500000 -25.000000
v 57.000000 0.500000 -25.000000
v 67.000000 -0.500000 -15.000000
v 67.000000 0.500000 -15.000000
v 67.000000 -0.500000 -25.000000
v 67.000000 0.500000 -25.000000
v 67.000000 -0.500000 -14.999999
v 67.000000 0.500000 -14.999999
v 67.000000 -0.500000 -24.999998
v 67.000000 0.500000 -24.999998
v 77.000000 -0.500000 -14.999999
v 77.000000 0.500000 -14.999999
v 77.000000 -0.500000 -24.999998
v 77.000000 0.500000 -24.999998
vn -1.0000 -0.0000 -0.0000
vn -0.0000 -0.0000 -1.0000
vn 1.0000 -0.0000 -0.0000
vn -0.0000 -0.0000 1.0000
vn -0.0000 -1.0000 -0.0000
vn -0.0000 1.0000 -0.0000
vt 0.375000 0.000000
vt 0.625000 0.000000
vt 0.625000 0.250000
vt 0.375000 0.250000
vt 0.625000 0.500000
vt 0.375000 0.500000
vt 0.625000 0.750000
vt 0.375000 0.750000
vt 0.625000 1.000000
vt 0.375000 1.000000
vt 0.125000 0.500000
vt 0.125000 0.750000
vt 0.875000 0.500000
vt 0.875000 0.750000
s 0
f 153/127/55 154/128/55 156/129/55 155/130/55
f 155/130/56 156/129/56 160/131/56 159/132/56
f 159/132/57 160/131/57 158/133/57 157/134/57
f 157/134/58 158/133/58 154/135/58 153/136/58
f 155/137/59 159/132/59 157/134/59 153/138/59
f 160/131/60 156/139/60 154/140/60 158/133/60
f 161/127/55 162/128/55 164/129/55 163/130/55
f 163/130/56 164/129/56 168/131/56 167/132/56
f 167/132/57 168/131/57 166/133/57 165/134/57
f 165/134/58 166/133/58 162/135/58 161/136/58
f 163/137/59 167/132/59 165/134/59 161/138/59
f 168/131/60 164/139/60 162/140/60 166/133/60
o Cube.008
v 94.500000 9.500000 -19.500000
v 94.500000 10.500000 -19.500000
v 94.500000 9.500000 -20.500000
v 94.500000 10.500000 -20.500000
v 95.500000 9.500000 -19.500000
v 95.500000 10.500000 -19.500000
v 95.500000 9.500000 -20.500000
v 95.500000 10.500000 -20.500000
vn -1.0000 -0.0000 -0.0000
vn -0.0000 -0.0000 -1.0000
vn 1.0000 -0.0000 -0.0000
vn -0.0000 -0.0000 1.0000
vn -0.0000 -1.0000 -0.0000
vn -0.0000 1.0000 -0.0000
vt 0.375000 0.000000
vt 0.625000 0.000000
vt 0.625000 0.250000
vt 0.375000 0.250000
vt 0.625000 0.500000
vt 0.375000 0.500000
vt 0.625000 0.750000
vt 0.375000 0.750000
vt 0.625000 1.000000
vt 0.375000 1.000000
vt 0.125000 0.500000
vt 0.125000 0.750000
vt 0.875000 0.500000
vt 0.875000 0.750000
s 0
f 169/141/61 170/142/61 172/143/61 171/144/61
f 171/144/62 172/143/62 176/145/62 175/146/62
f 175/146/63 176/145/63 174/147/63 173/148/63
f 173/148/64 174/147/64 170/149/64 169/150/64
f 171/151/65 175/146/65 173/148/65 169/152/65
f 176/145/66 172/153/66 170/154/66 174/147/66
o Cube.012
v 105.000000 -0.500000 -15.000000
v 105.000000 0.500000 -15.000000
v 105.000000 -0.500000 -25.000000
v 105.000000 0.500000 -25.000000
v 115.000000 -0.500000 -15.000000
v 115.000000 0.500000 -15.000000
v 115.000000 -0.500000 -25.000000
v 115.000000 0.500000 -25.000000
v 115.000000 -0.500000 -14.999999
v 115.000000 0.500000 -14.999999
v 115.000000 -0.500000 -24.999998
v 115.000000 0.500000 -24.999998
v 125.000000 -0.500000 -14.999999
v 125.000000 0.500000 -14.999999
v 125.000000 -0.500000 -24.999998
v 125.000000 0.500000 -24.999998
vn -1.0000 -0.0000 -0.0000
vn -0.0000 -0.0000 -1.0000
vn 1.0000 -0.0000 -0.0000
vn -0.0000 -0.0000 1.0000
vn -0.0000 -1.0000 -0.0000
vn -0.0000 1.0000 -0.0000
vt 0.375000 0.000000
vt 0.625000 0.000000
vt 0.625000 0.250000
vt 0.375000 0.250000
vt 0.625000 0.500000
vt 0.375000 0.500000
vt 0.625000 0.750000
vt 0.375000 0.750000
vt 0.625000 1.000000
vt 0.375000 1.000000
vt 0.125000 0.500000
vt 0.125000 0.750000
vt 0.875000 0.500000
vt 0.875000 0.750000
s 0
f 177/155/67 178/156/67 180/157/67 179/158/67
f 179/158/68 180/157/68 184/159/68 183/160/68
f 183/160/69 184/159/69 182/161/69 181/162/69
f 181/162/70 182/161/70 178/163/70 177/164/70
f 179/165/71 183/160/71 181/162/71 177/166/71
f 184/159/72 180/167/72 178/168/72 182/161/72
f 185/155/67 186/156/67 188/157/67 187/158/67
f 187/158/68 188/157/68 192/159/68 191/160/68
f 191/160/69 192/159/69 190/161/69 189/162/69
f 189/162/70 190/161/70 186/163/70 185/164/70
f 187/165/71 191/160/71 189/162/71 185/166/71
f 192/159/72 188/167/72 186/168/72 190/161/72
